<svg xmlns="http://www.w3.org/2000/svg" version="1.1" xmlns:xlink="http://www.w3.org/1999/xlink" xmlns:svgjs="http://svgjs.dev/svgjs" width="1500" height="1500" viewBox="0 0 1500 1500"><rect width="1500" height="1500" fill="#cd4b27"></rect><g transform="matrix(0.6666666666666666,0,0,0.6666666666666666,248.51726990456564,550.1375154941668)"><svg viewBox="0 0 97 39" data-background-color="#cd4b27" preserveAspectRatio="xMidYMid meet" height="603" width="1500" xmlns="http://www.w3.org/2000/svg" xmlns:xlink="http://www.w3.org/1999/xlink"><g id="tight-bounds" transform="matrix(1,0,0,1,0.14382481925713364,-0.11035598077737063)"><svg viewBox="0 0 96.7123503614857 39.22071196155472" height="39.22071196155472" width="96.7123503614857"><g><svg viewBox="0 0 96.7123503614857 39.22071196155472" height="39.22071196155472" width="96.7123503614857"><g><svg viewBox="0 0 96.7123503614857 39.22071196155472" height="39.22071196155472" width="96.7123503614857"><g id="textblocktransform"><svg viewBox="0 0 96.7123503614857 39.22071196155472" height="39.22071196155472" width="96.7123503614857" id="textblock"><g><svg viewBox="0 0 96.7123503614857 39.22071196155472" height="39.22071196155472" width="96.7123503614857"><g><svg><g></g><g></g></svg></g><g><svg><g><svg></svg></g><g></g></svg></g><g id="text-0"><svg viewBox="0 0 96.7123503614857 39.22071196155472" height="39.22071196155472" width="96.7123503614857"><g transform="matrix(1,0,0,1,0,0)"><svg width="34.5461503614857" viewBox="3.7 -34.4 30.3 34.4" height="39.22071196155472" data-palette-color="#eabba7"><path d="M23-34.4Q26.2-34.4 28.7-32.93 31.2-31.45 32.6-28.88 34-26.3 34-23.1L34-23.1 34-22.45Q34-19.25 32.6-16.65 31.2-14.05 28.7-12.58 26.2-11.1 23-11.1L23-11.1 14.75-11.1 14.75 0 3.7 0 3.7-34.4 23-34.4ZM14.75-26.25L14.75-19.15 19.3-19.15Q21.05-19.15 21.93-20.05 22.8-20.95 22.8-22.5L22.8-22.5 22.8-22.9Q22.8-24.5 21.93-25.38 21.05-26.25 19.3-26.25L19.3-26.25 14.75-26.25Z" opacity="1" transform="matrix(1,0,0,1,0,0)" fill="#eabba7" class="wordmark-text-0" data-fill-palette-color="primary"></path></svg></g><g><svg xmlns="http://www.w3.org/2000/svg" xmlns:xlink="http://www.w3.org/1999/xlink" version="1.1" x="47.6869503614857" y="0" viewBox="0 10 99.99900062611025 80" enable-background="new 0 0 100 100" xml:space="preserve" height="39.22071196155472" width="49.025400000000005" class="icon-cg-0" data-fill-palette-color="accent" id="cg-0"><path fill="#f0d0a9" d="M97.327 10H2.673C1.197 10 0 11.197 0 12.673V25v62.327C0 88.803 1.197 90 2.673 90h94.653c1.476 0 2.673-1.197 2.673-2.673V25 12.673C100 11.197 98.803 10 97.327 10zM95 85H5V30h90V85zM5 25V15h90v10H5z" data-fill-palette-color="accent"></path><circle fill="#f0d0a9" cx="10" cy="20" r="2.0" data-fill-palette-color="accent"></circle><circle fill="#f0d0a9" cx="17.5" cy="20" r="2.0" data-fill-palette-color="accent"></circle><circle fill="#f0d0a9" cx="25" cy="20" r="2.0" data-fill-palette-color="accent"></circle><path fill="#f0d0a9" d="M32.116 73.384c-0.764 0.764-2.004 0.764-2.768 0L15.61 59.645c-0.909-0.909-0.909-2.382 0-3.29l13.739-13.739c0.764-0.764 2.004-0.764 2.768 0l0.643 0.643c0.833 0.833 0.833 2.184 0 3.018L21.143 57.893c-0.059 0.059-0.059 0.155 0 0.214l11.741 11.741c0.764 0.764 0.764 2.004 0 2.768L32.116 73.384z" data-fill-palette-color="accent"></path><path fill="#f0d0a9" d="M68.019 73.384c0.764 0.764 2.004 0.764 2.768 0l13.739-13.739c0.909-0.909 0.909-2.382 0-3.29L70.787 42.616c-0.764-0.764-2.004-0.764-2.768 0l-0.643 0.643c-0.833 0.833-0.833 2.184 0 3.018l11.616 11.616c0.059 0.059 0.059 0.155 0 0.214L67.251 69.848c-0.764 0.764-0.764 2.004 0 2.768L68.019 73.384z" data-fill-palette-color="accent"></path><path fill="#f0d0a9" d="M61.388 41.954c-0.137-0.501-0.467-0.927-0.917-1.184l-0.943-0.539c-0.938-0.536-2.134-0.21-2.67 0.728L38.8 72.56c-0.258 0.451-0.325 0.985-0.189 1.486 0.137 0.501 0.467 0.927 0.917 1.184l0.943 0.539c0.938 0.536 2.134 0.21 2.67-0.728L61.2 43.44C61.457 42.989 61.525 42.454 61.388 41.954z" data-fill-palette-color="accent"></path></svg></g></svg></g></svg></g></svg></g></svg></g></svg></g><defs></defs></svg><rect width="96.7123503614857" height="39.22071196155472" fill="none" stroke="none" visibility="hidden"></rect></g></svg></g></svg>